<?xml version="1.0" encoding="UTF-8" standalone="no"?>
<!-- Created with Inkscape (http://www.inkscape.org/) -->

<svg
   xmlns:dc="http://purl.org/dc/elements/1.1/"
   xmlns:cc="http://creativecommons.org/ns#"
   xmlns:rdf="http://www.w3.org/1999/02/22-rdf-syntax-ns#"
   xmlns:svg="http://www.w3.org/2000/svg"
   xmlns="http://www.w3.org/2000/svg"
   xmlns:sodipodi="http://sodipodi.sourceforge.net/DTD/sodipodi-0.dtd"
   xmlns:inkscape="http://www.inkscape.org/namespaces/inkscape"
   width="107.66433"
   height="166.50264"
   viewBox="0 0 28.486186 44.053823"
   version="1.1"
   id="svg6593"
   inkscape:version="0.92.1 r15371"
   sodipodi:docname="noteXX.svg"
   inkscape:export-filename="C:\Users\jmp37177\Documents\perso\music-flash-cards\materials\note34.png"
   inkscape:export-xdpi="300"
   inkscape:export-ydpi="300">
  <defs
     id="defs6587" />
  <sodipodi:namedview
     id="base"
     pagecolor="#ffffff"
     bordercolor="#666666"
     borderopacity="1.0"
     inkscape:pageopacity="0.0"
     inkscape:pageshadow="2"
     inkscape:zoom="3.959798"
     inkscape:cx="27.368753"
     inkscape:cy="99.122802"
     inkscape:document-units="mm"
     inkscape:current-layer="layer1"
     showgrid="false"
     units="px"
     fit-margin-top="30"
     fit-margin-left="10"
     fit-margin-right="10"
     fit-margin-bottom="30"
     inkscape:window-width="1366"
     inkscape:window-height="716"
     inkscape:window-x="-8"
     inkscape:window-y="-8"
     inkscape:window-maximized="1"
     inkscape:snap-global="false" />
  <metadata
     id="metadata6590">
    <rdf:RDF>
      <cc:Work
         rdf:about="">
        <dc:format>image/svg+xml</dc:format>
        <dc:type
           rdf:resource="http://purl.org/dc/dcmitype/StillImage" />
        <dc:title />
      </cc:Work>
    </rdf:RDF>
  </metadata>
  <g
     inkscape:label="Layer 1"
     inkscape:groupmode="layer"
     id="layer1"
     transform="translate(-25.227418,-99.198404)">
    <rect
       style="fill:currentColor;stroke-width:0.1;stroke-miterlimit:4;stroke-dasharray:none"
       x="50.733883"
       y="109.36795"
       width="0.33388674"
       height="7.1170597"
       ry="0.0000"
       id="rect52" />
    <rect
       style="fill:currentColor;stroke-width:0.1;stroke-miterlimit:4;stroke-dasharray:none"
       x="50.733883"
       y="128.19768"
       width="0.33388674"
       height="7.1170597"
       ry="0.0000"
       id="rect54" />
    <line
       style="stroke:currentColor;stroke-width:0.1;stroke-linecap:round;stroke-linejoin:round;stroke-miterlimit:4;stroke-dasharray:0.1, 0.1;stroke-dashoffset:0"
       x1="27.923964"
       y1="116.46455"
       x2="51.017059"
       y2="116.46455"
       id="line56" />
    <line
       style="stroke:currentColor;stroke-width:0.1;stroke-linecap:round;stroke-linejoin:round;stroke-miterlimit:4;stroke-dasharray:0.1, 0.1;stroke-dashoffset:0"
       x1="27.923964"
       y1="114.7029"
       x2="51.017059"
       y2="114.7029"
       id="line58" />
    <line
       style="stroke:currentColor;stroke-width:0.1;stroke-linecap:round;stroke-linejoin:round;stroke-miterlimit:4;stroke-dasharray:0.1, 0.1;stroke-dashoffset:0"
       x1="27.923964"
       y1="112.94125"
       x2="51.017059"
       y2="112.94125"
       id="line60" />
    <line
       style="stroke:currentColor;stroke-width:0.1;stroke-linecap:round;stroke-linejoin:round;stroke-miterlimit:4;stroke-dasharray:0.1, 0.1;stroke-dashoffset:0"
       x1="27.923964"
       y1="111.17959"
       x2="51.017059"
       y2="111.17959"
       id="line62" />
    <line
       style="stroke:currentColor;stroke-width:0.1;stroke-linecap:round;stroke-linejoin:round;stroke-miterlimit:4;stroke-dasharray:0.1, 0.1;stroke-dashoffset:0"
       x1="27.923964"
       y1="109.41795"
       x2="51.017059"
       y2="109.41795"
       id="line64" />
    <line
       style="stroke:currentColor;stroke-width:0.1;stroke-linecap:round;stroke-linejoin:round;stroke-miterlimit:4;stroke-dasharray:0.1, 0.1;stroke-dashoffset:0"
       x1="27.923964"
       y1="135.26472"
       x2="51.017059"
       y2="135.26472"
       id="line82" />
    <line
       style="stroke:currentColor;stroke-width:0.1;stroke-linecap:round;stroke-linejoin:round;stroke-miterlimit:4;stroke-dasharray:0.1, 0.1;stroke-dashoffset:0"
       x1="27.923964"
       y1="133.50308"
       x2="51.017059"
       y2="133.50308"
       id="line84" />
    <line
       style="stroke:currentColor;stroke-width:0.1;stroke-linecap:round;stroke-linejoin:round;stroke-miterlimit:4;stroke-dasharray:0.1, 0.1;stroke-dashoffset:0"
       x1="27.923964"
       y1="131.74141"
       x2="51.017059"
       y2="131.74141"
       id="line86" />
    <line
       style="stroke:currentColor;stroke-width:0.1;stroke-linecap:round;stroke-linejoin:round;stroke-miterlimit:4;stroke-dasharray:0.1, 0.1;stroke-dashoffset:0"
       x1="27.923964"
       y1="129.97978"
       x2="51.017059"
       y2="129.97978"
       id="line88" />
    <line
       style="stroke:currentColor;stroke-width:0.1;stroke-linecap:round;stroke-linejoin:round;stroke-miterlimit:4;stroke-dasharray:0.1, 0.1;stroke-dashoffset:0"
       x1="27.923964"
       y1="128.21815"
       x2="51.017059"
       y2="128.21815"
       id="line90" />
    <rect
       style="fill:currentColor;stroke-width:1.75729871"
       x="39.958809"
       y="107.28592"
       width="3.7852213"
       height="0.35145974"
       ry="0.17572987"
       id="rect112" />
    <path
       inkscape:connector-curvature="0"
       style="fill:currentColor;stroke-width:0.0070292"
       d="m 31.750567,110.38656 c 0.04921,-0.0351 0.119496,-0.10544 0.161671,-0.15465 0.04218,-0.0492 0.105438,-0.11949 0.140584,-0.15464 0.330372,-0.3374 0.590453,-1.01923 0.555306,-1.48316 -0.02109,-0.26008 -0.09138,-0.40769 -0.217905,-0.44987 -0.196817,-0.0633 -0.569364,0.26711 -0.738065,0.66075 -0.02812,0.0633 -0.06326,0.12652 -0.07029,0.14761 -0.007,0.0211 -0.04218,0.12652 -0.06326,0.23899 -0.06326,0.28117 -0.05623,0.61857 0,1.0825 0.007,0.0844 0.07029,0.17573 0.119496,0.17573 0.01406,0 0.06326,-0.0281 0.112467,-0.0633 z m 1.075467,5.41951 c 0.17573,-0.13356 0.358489,-0.4077 0.414722,-0.6256 0.0492,-0.19682 0.02109,-0.61154 -0.0492,-0.75916 -0.04218,-0.0773 -0.189788,-0.25305 -0.302255,-0.3374 -0.203847,-0.16167 -0.569365,-0.28117 -0.681832,-0.23196 -0.07732,0.0351 -0.08435,0.10544 -0.03515,0.35146 0.02109,0.1195 0.05623,0.27414 0.06326,0.34443 0.02812,0.21088 0.196817,0.94894 0.26008,1.16685 0.06326,0.2179 0.140584,0.23196 0.330372,0.0914 z m -0.745095,0.32334 c 0.112467,-0.0562 0.126525,-0.13356 0.07732,-0.39364 -0.04218,-0.20384 -0.09138,-0.44284 -0.147613,-0.68183 -0.02812,-0.1195 -0.04218,-0.18979 -0.147614,-0.6748 -0.08435,-0.38661 -0.140584,-0.43581 -0.309284,-0.32334 -0.210876,0.14761 -0.281168,0.31631 -0.26008,0.62559 0.01406,0.23197 0.06326,0.37255 0.203846,0.58343 0.112467,0.17573 0.112467,0.19681 0,0.19681 -0.06326,0 -0.133555,-0.0211 -0.267109,-0.0914 -0.147613,-0.0773 -0.203847,-0.11949 -0.309285,-0.23899 -0.07029,-0.0773 -0.133555,-0.14761 -0.133555,-0.16167 0,-0.0141 -0.02109,-0.0703 -0.0492,-0.12653 -0.196817,-0.39363 -0.147613,-0.93488 0.126526,-1.31445 0.154642,-0.21791 0.34443,-0.40067 0.513131,-0.47799 0.196818,-0.0914 0.217905,-0.13355 0.182759,-0.33037 -0.06326,-0.39364 -0.105438,-0.5061 -0.210876,-0.5061 -0.133554,0 -0.618569,0.5061 -0.927853,0.963 -0.309285,0.45689 -0.449869,1.12467 -0.344431,1.6378 0.08435,0.41472 0.161672,0.56233 0.414722,0.81539 0.09841,0.0984 0.210877,0.20384 0.260081,0.23899 0.126525,0.0843 0.386606,0.2179 0.513131,0.25305 0.26008,0.0773 0.674803,0.0773 0.815387,0.007 z m -0.955971,3.12096 c -0.154642,-0.0422 -0.428781,-0.18276 -0.555306,-0.28117 -0.344431,-0.27414 -0.477986,-0.64668 -0.386606,-1.08952 0.04218,-0.19682 0.105438,-0.31632 0.246022,-0.44284 0.17573,-0.1687 0.267109,-0.20385 0.52016,-0.21088 0,0 0.133555,-0.0281 0.210876,-0.007 0.07732,0.0211 0.182759,0.0984 0.182759,0.0984 0.203847,0.10544 0.288197,0.18979 0.393635,0.40067 0.09841,0.19681 0.08435,0.46392 -0.03515,0.63965 -0.03515,0.0492 -0.119496,0.14059 -0.203847,0.21088 -0.161671,0.13355 -0.189788,0.17573 -0.147613,0.24602 0.03515,0.0562 0.147613,0.0914 0.344431,0.10544 0.189788,0.0141 0.288197,-0.0141 0.449869,-0.13356 0.07732,-0.0562 0.126525,-0.11246 0.196817,-0.25305 0.0492,-0.0984 0.112467,-0.23899 0.133555,-0.32334 0.07029,-0.26008 0.07732,-0.64669 0,-1.14576 -0.0492,-0.30228 -0.133555,-0.52019 -0.217905,-0.55534 -0.02812,-0.014 -0.203847,-0.0211 -0.393635,-0.0351 -0.189789,-0.0141 -0.407694,-0.0281 -0.485015,-0.0422 -0.288197,-0.0422 -0.815386,-0.26008 -1.04735,-0.42878 -0.119496,-0.0844 -0.35146,-0.3374 -0.520161,-0.54828 -0.182759,-0.23196 -0.351459,-0.58342 -0.414722,-0.86459 -0.09138,-0.40066 -0.09841,-0.46392 -0.09841,-0.78024 0,-0.36552 0.03515,-0.52719 0.182759,-0.89973 0.119496,-0.30929 0.119496,-0.30929 0.224934,-0.47096 0.0492,-0.0773 0.09841,-0.16167 0.119497,-0.18979 0.06326,-0.10544 0.527189,-0.6256 0.681831,-0.76618 0.08435,-0.0773 0.238993,-0.21088 0.337402,-0.2882 0.203847,-0.1687 0.309285,-0.28117 0.330372,-0.34443 0.007,-0.0211 0,-0.11247 -0.01406,-0.21087 -0.08435,-0.48502 -0.182759,-1.54643 -0.161671,-1.70107 0.105438,-0.68183 0.351459,-1.19496 0.759153,-1.58157 0.126525,-0.1195 0.274139,-0.19682 0.414722,-0.2179 0.07029,-0.007 0.09841,-0.007 0.203847,0.0492 0.105438,0.0492 0.147613,0.0984 0.238993,0.2179 0.140584,0.18979 0.253051,0.37255 0.323343,0.53422 0.07029,0.1687 0.1687,0.48501 0.189788,0.63263 0.007,0.0633 0.02109,0.12652 0.02812,0.14058 0.02109,0.0351 0.02812,0.44987 0.007,0.65372 -0.02812,0.30928 -0.17573,0.80132 -0.302255,1.00517 -0.02109,0.0422 -0.07732,0.13356 -0.119497,0.21791 -0.119496,0.23899 -0.316314,0.47798 -0.702919,0.87162 -0.105438,0.10543 -0.203847,0.22493 -0.224935,0.27414 -0.03515,0.0844 -0.03515,0.0984 -0.01406,0.2671 0.03515,0.26008 0.133555,0.75916 0.168701,0.82242 0.03515,0.0703 0.09841,0.0914 0.330372,0.12653 0.485015,0.0773 0.885679,0.30225 1.131701,0.61857 0.309284,0.40066 0.428781,0.87162 0.35146,1.39178 -0.02109,0.14761 -0.161672,0.54827 -0.196818,0.56936 -0.007,0.007 -0.0492,0.0562 -0.08435,0.1195 -0.07732,0.14058 -0.323343,0.39363 -0.562336,0.59045 -0.09841,0.0844 -0.189788,0.1687 -0.196817,0.18276 -0.02109,0.0562 -0.007,0.2179 0.02109,0.34443 0.04218,0.17573 0.07029,0.59045 0.07029,0.92082 0,0.33741 -0.04218,0.61857 -0.119496,0.80133 -0.140584,0.3374 -0.449869,0.61154 -0.836475,0.73807 -0.133555,0.0422 -0.182759,0.0492 -0.407693,0.0492 -0.147613,0 -0.295226,-0.0141 -0.344431,-0.0281 z"
       id="path444" />
    <path
       inkscape:connector-curvature="0"
       style="fill:currentColor;stroke-width:0.0070292"
       d="m 33.198581,129.50185 c -0.203847,-0.0703 -0.295226,-0.31632 -0.217905,-0.53422 0.07029,-0.19682 0.274139,-0.30226 0.470956,-0.26008 0.105438,0.014 0.154642,0.0562 0.231963,0.14058 0.112468,0.13356 0.126526,0.32335 0.04218,0.47096 -0.06326,0.10544 -0.140583,0.16167 -0.267109,0.20385 -0.112467,0.0351 -0.147613,0.0211 -0.26008,-0.0211 z m -0.02109,1.65889 c -0.105438,-0.0422 -0.161671,-0.11247 -0.217905,-0.23899 -0.04218,-0.10544 -0.0492,-0.15465 -0.03515,-0.239 0.01406,-0.0984 0.04218,-0.11246 0.154642,-0.23899 0.04218,-0.0422 0.196818,-0.10544 0.26711,-0.10544 0.253051,0.014 0.449868,0.23899 0.43581,0.47799 -0.007,0.14058 -0.09841,0.27414 -0.238993,0.34443 -0.112467,0.0633 -0.253051,0.0422 -0.365518,0 z m -3.880116,2.4813 c 0,-0.0351 0.182759,-0.17572 0.499073,-0.40066 0.253051,-0.17573 0.738065,-0.59748 0.836474,-0.73104 0.02812,-0.0351 0.112467,-0.11246 0.168701,-0.1687 0.05623,-0.0562 0.119496,-0.11949 0.147613,-0.15464 0.02812,-0.0352 0.07732,-0.0984 0.112467,-0.14058 0.03515,-0.0422 0.133555,-0.16168 0.203847,-0.26711 0.07029,-0.10544 0.133554,-0.21791 0.147613,-0.24602 0.05623,-0.0773 0.07029,-0.10544 0.09841,-0.17573 0.007,-0.0352 0.0492,-0.11247 0.06326,-0.15465 0.01406,-0.0422 0.05623,-0.11949 0.08435,-0.17573 0.147613,-0.30928 0.26008,-0.82241 0.246022,-1.11061 -0.01406,-0.36552 -0.09138,-0.63966 -0.217905,-0.90677 -0.08435,-0.18276 -0.323343,-0.5061 -0.449869,-0.58342 -0.112467,-0.0703 -0.274138,-0.1195 -0.492043,-0.12653 -0.18276,0 -0.288198,0.0352 -0.358489,0.0773 -0.154643,0.0984 -0.260081,0.24602 -0.316314,0.37957 -0.04218,0.10544 -0.07029,0.26711 -0.04218,0.3374 0.03515,0.0773 0.0492,0.0984 0.217905,0.14059 0.126525,0.0281 0.17573,0.0633 0.351459,0.1687 0.05623,0.0281 0.133555,0.15464 0.189789,0.26008 0.03515,0.0703 0.07029,0.27414 0.06326,0.37958 -0.007,0.14761 -0.168701,0.35849 -0.35146,0.46392 -0.168701,0.0984 -0.267109,0.10544 -0.463927,0.0914 -0.133555,-0.014 -0.161671,-0.0281 -0.26008,-0.0914 -0.06326,-0.0351 -0.154643,-0.11949 -0.210876,-0.17573 -0.08435,-0.0844 -0.126526,-0.14058 -0.182759,-0.27414 -0.105438,-0.27413 -0.09841,-0.52016 0.01406,-0.8435 0.133555,-0.38661 0.386606,-0.66777 0.745095,-0.8435 0.246022,-0.12653 0.358489,-0.16167 0.625598,-0.18979 0.140584,-0.014 0.449869,0.014 0.583423,0.0492 0.35146,0.10544 0.646686,0.29523 0.871621,0.54125 0.210875,0.22494 0.246022,0.31631 0.386605,0.63263 0.09841,0.21088 0.154643,0.41472 0.168701,0.61154 0.01406,0.20384 -0.01406,0.53422 -0.0492,0.70292 -0.02812,0.13355 -0.182759,0.52016 -0.238992,0.59045 -0.01406,0.0141 -0.07029,0.0844 -0.105439,0.15464 -0.03515,0.0703 -0.119496,0.19682 -0.189788,0.28117 -0.07029,0.0844 -0.196817,0.23899 -0.267109,0.3374 -0.238993,0.29523 -0.815387,0.78024 -1.22308,1.01924 -0.03515,0.0281 -0.147613,0.0844 -0.246022,0.14761 -0.09841,0.0633 -0.231964,0.13355 -0.302256,0.1687 -0.07029,0.0351 -0.154642,0.0703 -0.182759,0.0844 -0.07732,0.0422 -0.316313,0.11247 -0.463927,0.14058 -0.154642,0.0281 -0.210875,0.0281 -0.210875,0 z"
       id="path474" />
    <path
       inkscape:connector-curvature="0"
       style="fill:currentColor;stroke-width:0.0070292"
       d="m 56.002518,107.41818 c -0.06869,-0.0824 -0.344431,-0.37255 -0.435811,-0.43581 -0.03514,-0.0211 -0.09138,-0.0633 -0.133554,-0.0914 -0.04218,-0.0281 -0.372548,-0.19682 -0.407694,-0.19682 -0.09841,0 -0.126525,0.0422 -0.133554,0.21088 h -0.112467 v -2.39696 h 0.112467 c 0.03515,0 0.04218,0.0914 0.0492,0.16167 0.007,0.0351 0.007,0.0984 0.01406,0.14059 0.01406,0.0914 0.02812,0.25305 0.04218,0.31631 0.007,0.0211 0.03515,0.11247 0.06326,0.21088 0.0492,0.17573 0.154643,0.41472 0.224935,0.52719 0.06326,0.0984 0.140584,0.20384 0.17573,0.23899 0.126525,0.13355 0.189788,0.21088 0.26008,0.30225 0.04218,0.0492 0.07732,0.0984 0.08435,0.0984 0.007,0 0.05623,0.0703 0.112467,0.16168 0.05623,0.0914 0.105438,0.1687 0.112467,0.1687 0.01406,0 0.154643,0.2179 0.154643,0.23899 0,0.0141 0.01406,0.0351 0.03515,0.0562 0.06326,0.0633 0.17573,0.35849 0.217905,0.56936 0.02812,0.16168 0.07732,0.21088 0.08435,0.70292 0.007,0.26711 0.007,0.34443 -0.01406,0.40067 -0.01406,0.0352 -0.09138,0.47798 -0.112467,0.52016 -0.02109,0.0422 -0.04218,0.10544 -0.05623,0.14761 -0.04218,0.1195 -0.26008,0.54125 -0.330372,0.63966 -0.07029,0.0984 -0.105438,0.1195 -0.133555,0.0844 -0.04218,-0.0492 0,-0.17573 0.161672,-0.5061 0.154642,-0.30929 0.224934,-0.49908 0.288197,-0.77322 0.03515,-0.14761 0.02812,-0.54124 -0.01406,-0.68886 -0.02109,-0.0633 -0.03515,-0.13355 -0.03515,-0.16167 0,-0.0562 -0.112467,-0.3866 -0.147613,-0.44284 -0.01406,-0.0211 -0.09138,-0.16167 -0.126525,-0.20384 z"
       id="path484" />
    <g
       id="g4564"
       transform="translate(0.40090429,-0.20045216)">
      <path
         id="path472"
         d="m 41.114151,107.57605 c -0.179244,-0.0418 -0.382388,-0.20912 -0.436161,-0.35251 -0.0239,-0.0598 -0.03585,-0.1434 -0.03585,-0.23302 0,-0.0717 0.006,-0.14339 0.0239,-0.19717 0.03585,-0.12547 0.12547,-0.29276 0.203144,-0.37641 0.167294,-0.18522 0.507859,-0.38239 0.758801,-0.44811 0.179245,-0.0478 0.49591,-0.0717 0.639305,-0.0478 0.137421,0.0239 0.286791,0.0896 0.364463,0.16132 0.101572,0.10157 0.155345,0.23302 0.155345,0.37044 0,0.17327 -0.07767,0.37044 -0.244967,0.5915 -0.16132,0.22107 -0.352514,0.35252 -0.66918,0.46006 -0.209117,0.0717 -0.597481,0.10755 -0.7588,0.0717 z"
         style="fill:currentColor;stroke-width:0.00597482"
         inkscape:connector-curvature="0" />
      <rect
         id="rect482"
         ry="0.070291951"
         height="5.8342314"
         width="0.22844881"
         y="106.79707"
         x="40.469978"
         style="fill:currentColor;stroke-width:1.75729871" />
      <path
         id="path492"
         d="m 41.008188,107.72164 c -0.210876,-0.0492 -0.449868,-0.24602 -0.513131,-0.41472 -0.02812,-0.0703 -0.04218,-0.1687 -0.04218,-0.27414 0,-0.0844 0.007,-0.1687 0.02812,-0.23196 0.04217,-0.14762 0.147613,-0.34444 0.238992,-0.44284 0.196818,-0.21791 0.597482,-0.44987 0.892708,-0.52719 0.210876,-0.0562 0.583423,-0.0844 0.752124,-0.0562 0.161671,0.0281 0.337401,0.10543 0.428781,0.18978 0.119496,0.1195 0.182759,0.27414 0.182759,0.43582 0,0.20384 -0.09138,0.43581 -0.288197,0.69589 -0.189788,0.26008 -0.414722,0.41472 -0.78727,0.54124 -0.246022,0.0844 -0.702919,0.12653 -0.892708,0.0844 z"
         style="fill:currentColor;stroke-width:0.0070292"
         inkscape:connector-curvature="0" />
      <path
         id="path538"
         d="m 40.615605,111.80417 c 0,0.0562 0.007,0.13502 0.07029,0.17719 0.02812,0.0211 0.203847,-0.007 0.302255,-0.0492 0.133555,-0.0633 0.217905,-0.10543 0.281168,-0.15464 0.03515,-0.0281 0.112467,-0.0844 0.17573,-0.1195 0.06326,-0.0351 0.147613,-0.0984 0.189788,-0.14058 0.04218,-0.0422 0.140584,-0.13355 0.217906,-0.19682 0.07732,-0.0633 0.161671,-0.16167 0.189788,-0.20384 0.08435,-0.13356 0.265176,-0.48795 0.302255,-0.61154 0.02109,-0.0703 0.02812,-0.1195 0.06326,-0.37255 0.007,-0.0703 -0.01406,-0.59045 -0.02812,-0.68886 -0.01406,-0.1195 -0.0492,-0.23899 -0.09138,-0.35146 -0.03515,-0.0914 -0.238993,-0.49907 -0.238993,-0.55531 0,-0.0141 -0.01406,-0.0562 -0.02812,-0.0773 -0.01791,-0.0224 0.0058,-0.13743 0.08435,-0.0703 0.04474,0.0383 0.121514,0.20211 0.18276,0.30929 0.09841,0.1687 0.231963,0.56233 0.217905,0.64668 -0.007,0.0422 0,0.0633 0.02109,0.0773 0.02812,0.0141 0.03515,0.0562 0.04218,0.25305 0.007,0.16167 0.007,0.24603 -0.007,0.26008 -0.01406,0.0141 -0.02109,0.0352 -0.007,0.0562 0.02812,0.0492 -0.03515,0.49908 -0.07732,0.55531 -0.007,0.0141 -0.01406,0.0422 -0.007,0.0562 0.01406,0.0352 -0.06326,0.25305 -0.161672,0.44987 -0.03514,0.0703 -0.05623,0.13355 -0.05623,0.14058 0,0.007 -0.03515,0.0703 -0.07732,0.12653 -0.04217,0.0562 -0.07732,0.10544 -0.07732,0.11247 0,0.0211 -0.17573,0.25305 -0.302256,0.3866 -0.07029,0.0773 -0.119496,0.14761 -0.119496,0.15464 0,0.007 -0.03515,0.0422 -0.07732,0.0703 -0.04218,0.0281 -0.09138,0.0914 -0.119497,0.12653 -0.02812,0.0352 -0.147613,0.17573 -0.267109,0.29523 -0.26711,0.27413 -0.323343,0.34443 -0.386606,0.49204 -0.126525,0.2882 -0.133555,0.3374 -0.133555,0.53422 0.0046,0.19279 -0.02379,0.31064 -0.07732,0.33594 h -0.112467 v -2.02441 z"
         style="fill:currentColor;stroke-width:0.0070292"
         inkscape:connector-curvature="0" />
    </g>
    <rect
       style="fill:currentColor;stroke-width:1.75729871"
       x="39.958809"
       y="105.37389"
       width="3.7852213"
       height="0.35145974"
       ry="0.17572987"
       id="rect112-4" />
  </g>
</svg>
